<svg width="20" height="21" viewBox="0 0 20 21" fill="none" xmlns="http://www.w3.org/2000/svg">
<path d="M12.4157 21H0V15.752H2.97675V18.022H12.4049C13.4723 17.9557 14.4741 17.4855 15.2064 16.7073C15.9388 15.929 16.3465 14.9013 16.3465 13.8334C16.3465 12.7654 15.9388 11.7377 15.2064 10.9595C14.4741 10.1812 13.4723 9.71105 12.4049 9.6447H5.83443L0 0H2.97675L7.21997 6.66401H12.4157C14.2953 6.70045 16.0856 7.47167 17.402 8.81196C18.7183 10.1523 19.4557 11.9547 19.4557 13.832C19.4557 15.7093 18.7183 17.5118 17.402 18.852C16.0856 20.1923 14.2953 20.9636 12.4157 21Z" fill="url(#paint0_linear)"/>
<defs>
<linearGradient id="paint0_linear" x1="7.92627" y1="2.89422" x2="9.63185" y2="15.9661" gradientUnits="userSpaceOnUse">
<stop offset="0.26" stop-color="#7007EA"/>
<stop offset="1" stop-color="#142766"/>
</linearGradient>
</defs>
</svg>
