<svg width="17" height="15" viewBox="0 0 17 15" fill="none" xmlns="http://www.w3.org/2000/svg">
<path d="M9.29287 14.3359H0V7.49352H2.97675V11.3633H9.29287C9.86565 11.3989 10.4397 11.317 10.9795 11.1226C11.5194 10.9282 12.0137 10.6254 12.4319 10.233C12.8501 9.84054 13.1834 9.36672 13.4112 8.84073C13.6391 8.31474 13.7566 7.74772 13.7566 7.17464C13.7566 6.60155 13.6391 6.03454 13.4112 5.50854C13.1834 4.98255 12.8501 4.50873 12.4319 4.11629C12.0137 3.72385 11.5194 3.42109 10.9795 3.2267C10.4397 3.0323 9.86565 2.95038 9.29287 2.98599H1.8077L0 -0.00011357H9.29287C10.2472 -0.0186189 11.1957 0.153108 12.0828 0.505023C12.9699 0.856937 13.7778 1.38197 14.4593 2.04942C15.1408 2.71686 15.6821 3.51331 16.0517 4.39218C16.4213 5.27104 16.6116 6.21468 16.6116 7.16788C16.6116 8.12109 16.4213 9.06472 16.0517 9.94359C15.6821 10.8225 15.1408 11.6189 14.4593 12.2863C13.7778 12.9538 12.9699 13.4788 12.0828 13.8307C11.1957 14.1827 10.2472 14.3544 9.29287 14.3359Z" fill="url(#paint0_linear)"/>
<defs>
<linearGradient id="paint0_linear" x1="11.5931" y1="-1.41074" x2="4.15887" y2="11.7721" gradientUnits="userSpaceOnUse">
<stop stop-color="#7007EA"/>
<stop offset="1" stop-color="#8037C6"/>
</linearGradient>
</defs>
</svg>
