<svg width="113" height="44" viewBox="0 0 113 44" fill="none" xmlns="http://www.w3.org/2000/svg">
<g clip-path="url(#clip0)" filter="url(#filter0_d)">
<rect x="8" y="6" width="97" height="22" rx="4" fill="#D9D9D9"/>
<rect width="97" height="22" transform="translate(8 6)" fill="white"/>
<path d="M41.6665 20.224C41.7305 20.224 41.7885 20.25 41.8405 20.302L42.2965 20.8C41.9445 21.208 41.5165 21.526 41.0125 21.754C40.5125 21.982 39.9085 22.096 39.2005 22.096C38.5805 22.096 38.0185 21.99 37.5145 21.778C37.0105 21.562 36.5805 21.262 36.2245 20.878C35.8685 20.49 35.5925 20.026 35.3965 19.486C35.2005 18.946 35.1025 18.352 35.1025 17.704C35.1025 17.056 35.2065 16.462 35.4145 15.922C35.6265 15.382 35.9225 14.918 36.3025 14.53C36.6825 14.142 37.1365 13.842 37.6645 13.63C38.1965 13.414 38.7825 13.306 39.4225 13.306C40.0545 13.306 40.5985 13.404 41.0545 13.6C41.5145 13.796 41.9225 14.062 42.2785 14.398L41.9005 14.932C41.8725 14.972 41.8405 15.006 41.8045 15.034C41.7685 15.058 41.7165 15.07 41.6485 15.07C41.5965 15.07 41.5405 15.052 41.4805 15.016C41.4245 14.976 41.3565 14.928 41.2765 14.872C41.1965 14.816 41.1025 14.756 40.9945 14.692C40.8865 14.628 40.7585 14.568 40.6105 14.512C40.4625 14.456 40.2905 14.41 40.0945 14.374C39.8985 14.334 39.6725 14.314 39.4165 14.314C38.9565 14.314 38.5345 14.394 38.1505 14.554C37.7705 14.71 37.4425 14.934 37.1665 15.226C36.8905 15.518 36.6745 15.874 36.5185 16.294C36.3665 16.714 36.2905 17.184 36.2905 17.704C36.2905 18.24 36.3665 18.718 36.5185 19.138C36.6745 19.558 36.8845 19.914 37.1485 20.206C37.4165 20.494 37.7325 20.714 38.0965 20.866C38.4605 21.018 38.8525 21.094 39.2725 21.094C39.5285 21.094 39.7585 21.08 39.9625 21.052C40.1665 21.02 40.3545 20.972 40.5265 20.908C40.7025 20.844 40.8645 20.764 41.0125 20.668C41.1645 20.568 41.3165 20.45 41.4685 20.314C41.5365 20.254 41.6025 20.224 41.6665 20.224ZM46.1133 15.826C46.5573 15.826 46.9573 15.9 47.3133 16.048C47.6733 16.196 47.9773 16.406 48.2253 16.678C48.4773 16.95 48.6693 17.28 48.8013 17.668C48.9373 18.052 49.0053 18.482 49.0053 18.958C49.0053 19.438 48.9373 19.87 48.8013 20.254C48.6693 20.638 48.4773 20.966 48.2253 21.238C47.9773 21.51 47.6733 21.72 47.3133 21.868C46.9573 22.012 46.5573 22.084 46.1133 22.084C45.6693 22.084 45.2673 22.012 44.9073 21.868C44.5513 21.72 44.2473 21.51 43.9953 21.238C43.7433 20.966 43.5493 20.638 43.4133 20.254C43.2773 19.87 43.2093 19.438 43.2093 18.958C43.2093 18.482 43.2773 18.052 43.4133 17.668C43.5493 17.28 43.7433 16.95 43.9953 16.678C44.2473 16.406 44.5513 16.196 44.9073 16.048C45.2673 15.9 45.6693 15.826 46.1133 15.826ZM46.1133 21.25C46.7133 21.25 47.1613 21.05 47.4573 20.65C47.7533 20.246 47.9013 19.684 47.9013 18.964C47.9013 18.24 47.7533 17.676 47.4573 17.272C47.1613 16.868 46.7133 16.666 46.1133 16.666C45.8093 16.666 45.5453 16.718 45.3213 16.822C45.0973 16.926 44.9093 17.076 44.7573 17.272C44.6093 17.468 44.4973 17.71 44.4213 17.998C44.3493 18.282 44.3133 18.604 44.3133 18.964C44.3133 19.324 44.3493 19.646 44.4213 19.93C44.4973 20.214 44.6093 20.454 44.7573 20.65C44.9093 20.842 45.0973 20.99 45.3213 21.094C45.5453 21.198 45.8093 21.25 46.1133 21.25ZM50.3213 24.058V15.922H50.9573C51.1093 15.922 51.2053 15.996 51.2453 16.144L51.3353 16.864C51.5953 16.548 51.8913 16.294 52.2233 16.102C52.5593 15.91 52.9453 15.814 53.3813 15.814C53.7293 15.814 54.0453 15.882 54.3293 16.018C54.6133 16.15 54.8553 16.348 55.0553 16.612C55.2553 16.872 55.4093 17.196 55.5173 17.584C55.6253 17.972 55.6793 18.418 55.6793 18.922C55.6793 19.37 55.6193 19.788 55.4993 20.176C55.3793 20.56 55.2073 20.894 54.9833 21.178C54.7593 21.458 54.4833 21.68 54.1553 21.844C53.8313 22.004 53.4653 22.084 53.0573 22.084C52.6813 22.084 52.3593 22.022 52.0913 21.898C51.8273 21.774 51.5933 21.598 51.3893 21.37V24.058H50.3213ZM53.0273 16.678C52.6793 16.678 52.3733 16.758 52.1093 16.918C51.8493 17.078 51.6093 17.304 51.3893 17.596V20.536C51.5853 20.8 51.7993 20.986 52.0313 21.094C52.2673 21.202 52.5293 21.256 52.8173 21.256C53.3813 21.256 53.8153 21.054 54.1193 20.65C54.4233 20.246 54.5753 19.67 54.5753 18.922C54.5753 18.526 54.5393 18.186 54.4673 17.902C54.3993 17.618 54.2993 17.386 54.1673 17.206C54.0353 17.022 53.8733 16.888 53.6813 16.804C53.4893 16.72 53.2713 16.678 53.0273 16.678ZM58.1304 15.922V22H57.0624V15.922H58.1304ZM58.3704 14.014C58.3704 14.118 58.3484 14.216 58.3044 14.308C58.2644 14.396 58.2084 14.476 58.1364 14.548C58.0684 14.616 57.9884 14.67 57.8964 14.71C57.8044 14.75 57.7064 14.77 57.6024 14.77C57.4984 14.77 57.4004 14.75 57.3084 14.71C57.2204 14.67 57.1404 14.616 57.0684 14.548C57.0004 14.476 56.9464 14.396 56.9064 14.308C56.8664 14.216 56.8464 14.118 56.8464 14.014C56.8464 13.91 56.8664 13.812 56.9064 13.72C56.9464 13.624 57.0004 13.542 57.0684 13.474C57.1404 13.402 57.2204 13.346 57.3084 13.306C57.4004 13.266 57.4984 13.246 57.6024 13.246C57.7064 13.246 57.8044 13.266 57.8964 13.306C57.9884 13.346 58.0684 13.402 58.1364 13.474C58.2084 13.542 58.2644 13.624 58.3044 13.72C58.3484 13.812 58.3704 13.91 58.3704 14.014ZM64.4767 22H64.0027C63.8987 22 63.8147 21.984 63.7507 21.952C63.6867 21.92 63.6447 21.852 63.6247 21.748L63.5047 21.184C63.3447 21.328 63.1887 21.458 63.0367 21.574C62.8847 21.686 62.7247 21.782 62.5567 21.862C62.3887 21.938 62.2087 21.996 62.0167 22.036C61.8287 22.076 61.6187 22.096 61.3867 22.096C61.1507 22.096 60.9287 22.064 60.7207 22C60.5167 21.932 60.3387 21.832 60.1867 21.7C60.0347 21.568 59.9127 21.402 59.8207 21.202C59.7327 20.998 59.6887 20.758 59.6887 20.482C59.6887 20.242 59.7547 20.012 59.8867 19.792C60.0187 19.568 60.2307 19.37 60.5227 19.198C60.8187 19.026 61.2047 18.886 61.6807 18.778C62.1567 18.666 62.7387 18.602 63.4267 18.586V18.112C63.4267 17.64 63.3247 17.284 63.1207 17.044C62.9207 16.8 62.6227 16.678 62.2267 16.678C61.9667 16.678 61.7467 16.712 61.5667 16.78C61.3907 16.844 61.2367 16.918 61.1047 17.002C60.9767 17.082 60.8647 17.156 60.7687 17.224C60.6767 17.288 60.5847 17.32 60.4927 17.32C60.4207 17.32 60.3567 17.302 60.3007 17.266C60.2487 17.226 60.2067 17.178 60.1747 17.122L59.9827 16.78C60.3187 16.456 60.6807 16.214 61.0687 16.054C61.4567 15.894 61.8867 15.814 62.3587 15.814C62.6987 15.814 63.0007 15.87 63.2647 15.982C63.5287 16.094 63.7507 16.25 63.9307 16.45C64.1107 16.65 64.2467 16.892 64.3387 17.176C64.4307 17.46 64.4767 17.772 64.4767 18.112V22ZM61.7047 21.346C61.8927 21.346 62.0647 21.328 62.2207 21.292C62.3767 21.252 62.5227 21.198 62.6587 21.13C62.7987 21.058 62.9307 20.972 63.0547 20.872C63.1827 20.772 63.3067 20.658 63.4267 20.53V19.264C62.9347 19.28 62.5167 19.32 62.1727 19.384C61.8287 19.444 61.5487 19.524 61.3327 19.624C61.1167 19.724 60.9587 19.842 60.8587 19.978C60.7627 20.114 60.7147 20.266 60.7147 20.434C60.7147 20.594 60.7407 20.732 60.7927 20.848C60.8447 20.964 60.9147 21.06 61.0027 21.136C61.0907 21.208 61.1947 21.262 61.3147 21.298C61.4347 21.33 61.5647 21.346 61.7047 21.346ZM66.0948 22V15.922H66.7068C66.8228 15.922 66.9028 15.944 66.9468 15.988C66.9908 16.032 67.0208 16.108 67.0368 16.216L67.1088 17.164C67.3168 16.74 67.5728 16.41 67.8768 16.174C68.1848 15.934 68.5448 15.814 68.9568 15.814C69.1248 15.814 69.2768 15.834 69.4128 15.874C69.5488 15.91 69.6748 15.962 69.7908 16.03L69.6528 16.828C69.6248 16.928 69.5628 16.978 69.4668 16.978C69.4108 16.978 69.3248 16.96 69.2088 16.924C69.0928 16.884 68.9308 16.864 68.7228 16.864C68.3508 16.864 68.0388 16.972 67.7868 17.188C67.5388 17.404 67.3308 17.718 67.1628 18.13V22H66.0948ZM75.0969 22.096C74.6169 22.096 74.2469 21.962 73.9869 21.694C73.7309 21.426 73.6029 21.04 73.6029 20.536V16.816H72.8709C72.8069 16.816 72.7529 16.798 72.7089 16.762C72.6649 16.722 72.6429 16.662 72.6429 16.582V16.156L73.6389 16.03L73.8849 14.152C73.8929 14.092 73.9189 14.044 73.9629 14.008C74.0069 13.968 74.0629 13.948 74.1309 13.948H74.6709V16.042H76.4109V16.816H74.6709V20.464C74.6709 20.72 74.7329 20.91 74.8569 21.034C74.9809 21.158 75.1409 21.22 75.3369 21.22C75.4489 21.22 75.5449 21.206 75.6249 21.178C75.7089 21.146 75.7809 21.112 75.8409 21.076C75.9009 21.04 75.9509 21.008 75.9909 20.98C76.0349 20.948 76.0729 20.932 76.1049 20.932C76.1609 20.932 76.2109 20.966 76.2549 21.034L76.5669 21.544C76.3829 21.716 76.1609 21.852 75.9009 21.952C75.6409 22.048 75.3729 22.096 75.0969 22.096ZM78.6555 15.922V19.798C78.6555 20.258 78.7615 20.614 78.9735 20.866C79.1855 21.118 79.5055 21.244 79.9335 21.244C80.2455 21.244 80.5395 21.17 80.8155 21.022C81.0915 20.874 81.3455 20.668 81.5775 20.404V15.922H82.6455V22H82.0095C81.8575 22 81.7615 21.926 81.7215 21.778L81.6375 21.124C81.3735 21.416 81.0775 21.652 80.7495 21.832C80.4215 22.008 80.0455 22.096 79.6215 22.096C79.2895 22.096 78.9955 22.042 78.7395 21.934C78.4875 21.822 78.2755 21.666 78.1035 21.466C77.9315 21.266 77.8015 21.024 77.7135 20.74C77.6295 20.456 77.5875 20.142 77.5875 19.798V15.922H78.6555ZM88.6774 22C88.5254 22 88.4294 21.926 88.3894 21.778L88.2934 21.04C88.0334 21.356 87.7354 21.61 87.3994 21.802C87.0674 21.99 86.6854 22.084 86.2534 22.084C85.9054 22.084 85.5894 22.018 85.3054 21.886C85.0214 21.75 84.7794 21.552 84.5794 21.292C84.3794 21.032 84.2254 20.708 84.1174 20.32C84.0094 19.932 83.9554 19.486 83.9554 18.982C83.9554 18.534 84.0154 18.118 84.1354 17.734C84.2554 17.346 84.4274 17.01 84.6514 16.726C84.8794 16.442 85.1554 16.22 85.4794 16.06C85.8034 15.896 86.1714 15.814 86.5834 15.814C86.9554 15.814 87.2734 15.878 87.5374 16.006C87.8014 16.13 88.0374 16.306 88.2454 16.534V13.162H89.3134V22H88.6774ZM86.6074 21.22C86.9554 21.22 87.2594 21.14 87.5194 20.98C87.7834 20.82 88.0254 20.594 88.2454 20.302V17.362C88.0494 17.098 87.8334 16.914 87.5974 16.81C87.3654 16.702 87.1074 16.648 86.8234 16.648C86.2554 16.648 85.8194 16.85 85.5154 17.254C85.2114 17.658 85.0594 18.234 85.0594 18.982C85.0594 19.378 85.0934 19.718 85.1614 20.002C85.2294 20.282 85.3294 20.514 85.4614 20.698C85.5934 20.878 85.7554 21.01 85.9474 21.094C86.1394 21.178 86.3594 21.22 86.6074 21.22ZM93.5626 15.826C94.0066 15.826 94.4066 15.9 94.7626 16.048C95.1226 16.196 95.4266 16.406 95.6746 16.678C95.9266 16.95 96.1186 17.28 96.2506 17.668C96.3866 18.052 96.4546 18.482 96.4546 18.958C96.4546 19.438 96.3866 19.87 96.2506 20.254C96.1186 20.638 95.9266 20.966 95.6746 21.238C95.4266 21.51 95.1226 21.72 94.7626 21.868C94.4066 22.012 94.0066 22.084 93.5626 22.084C93.1186 22.084 92.7166 22.012 92.3566 21.868C92.0006 21.72 91.6966 21.51 91.4446 21.238C91.1926 20.966 90.9986 20.638 90.8626 20.254C90.7266 19.87 90.6586 19.438 90.6586 18.958C90.6586 18.482 90.7266 18.052 90.8626 17.668C90.9986 17.28 91.1926 16.95 91.4446 16.678C91.6966 16.406 92.0006 16.196 92.3566 16.048C92.7166 15.9 93.1186 15.826 93.5626 15.826ZM93.5626 21.25C94.1626 21.25 94.6106 21.05 94.9066 20.65C95.2026 20.246 95.3506 19.684 95.3506 18.964C95.3506 18.24 95.2026 17.676 94.9066 17.272C94.6106 16.868 94.1626 16.666 93.5626 16.666C93.2586 16.666 92.9946 16.718 92.7706 16.822C92.5466 16.926 92.3586 17.076 92.2066 17.272C92.0586 17.468 91.9466 17.71 91.8706 17.998C91.7986 18.282 91.7626 18.604 91.7626 18.964C91.7626 19.324 91.7986 19.646 91.8706 19.93C91.9466 20.214 92.0586 20.454 92.2066 20.65C92.3586 20.842 92.5466 20.99 92.7706 21.094C92.9946 21.198 93.2586 21.25 93.5626 21.25Z" fill="#172765"/>
<g clip-path="url(#clip1)">
<path d="M20 28H32L26 34L20 28Z" fill="white"/>
</g>
</g>
<path d="M29.4997 20.4997V11.4996H20.4993" stroke="#172765" stroke-linecap="round" stroke-linejoin="round"/>
<path d="M27.4995 13.4997H18.4991V22.4997H27.4995V13.4997Z" stroke="#172765" stroke-linecap="round" stroke-linejoin="round"/>
<defs>
<filter id="filter0_d" x="0" y="0" width="113" height="44" filterUnits="userSpaceOnUse" color-interpolation-filters="sRGB">
<feFlood flood-opacity="0" result="BackgroundImageFix"/>
<feColorMatrix in="SourceAlpha" type="matrix" values="0 0 0 0 0 0 0 0 0 0 0 0 0 0 0 0 0 0 127 0"/>
<feOffset dy="2"/>
<feGaussianBlur stdDeviation="4"/>
<feColorMatrix type="matrix" values="0 0 0 0 0 0 0 0 0 0 0 0 0 0 0 0 0 0 0.15 0"/>
<feBlend mode="normal" in2="BackgroundImageFix" result="effect1_dropShadow"/>
<feBlend mode="normal" in="SourceGraphic" in2="effect1_dropShadow" result="shape"/>
</filter>
<clipPath id="clip0">
<rect width="97" height="28" fill="white" transform="translate(8 6)"/>
</clipPath>
<clipPath id="clip1">
<rect width="6" height="24" fill="white" transform="translate(8 34) rotate(-90)"/>
</clipPath>
</defs>
</svg>
